<svg version="1.1" viewBox="0.0 0.0 960.0 720.0" fill="none" stroke="none" stroke-linecap="square" stroke-miterlimit="10" xmlns:xlink="http://www.w3.org/1999/xlink" xmlns="http://www.w3.org/2000/svg"><clipPath id="p.0"><path d="m0 0l960.0 0l0 720.0l-960.0 0l0 -720.0z" clip-rule="nonzero"/></clipPath><g clip-path="url(#p.0)"><path fill="#000000" fill-opacity="0.0" d="m0 0l960.0 0l0 720.0l-960.0 0z" fill-rule="evenodd"/><path fill="#ff9900" d="m353.91602 339.26196l0 0c0 -29.320099 23.768646 -53.088745 53.088745 -53.088745l36.499664 0l0 0c14.080017 0 27.583344 5.5932617 37.53943 15.549347c9.956055 9.956055 15.549316 23.459412 15.549316 37.5394l0 41.476074c0 29.320099 -23.768646 53.088745 -53.088745 53.088745l-36.499664 0c-29.320099 0 -53.088745 -23.768646 -53.088745 -53.088745z" fill-rule="evenodd"/><path fill="#434343" d="m372.16534 341.48032l0 0c0 -10.228149 8.171692 -18.519684 18.251984 -18.519684l0 0c4.8407288 0 9.483185 1.9511719 12.906097 5.424286c3.422882 3.473114 5.3458557 8.183685 5.3458557 13.095398l0 0c0 10.228149 -8.171661 18.519684 -18.251953 18.519684l0 0c-10.080292 0 -18.251984 -8.291534 -18.251984 -18.519684z" fill-rule="evenodd"/><path fill="#434343" d="m443.49606 341.48032l0 0c0 -10.228149 8.171692 -18.519684 18.251953 -18.519684l0 0c4.8407288 0 9.483185 1.9511719 12.906097 5.424286c3.4229126 3.473114 5.345886 8.183685 5.345886 13.095398l0 0c0 10.228149 -8.171692 18.519684 -18.251984 18.519684l0 0c-10.080261 0 -18.251953 -8.291534 -18.251953 -18.519684z" fill-rule="evenodd"/></g></svg>